<mxfile host="app.diagrams.net" agent="Mozilla/5.0 (Windows NT 10.0; Win64; x64; rv:143.0) Gecko/20100101 Firefox/143.0" version="28.2.7">
  <diagram name="Сторінка-1" id="Nd0-yCKHOU4DHMPuqDZC">
    <mxGraphModel dx="1230" dy="563" grid="1" gridSize="10" guides="1" tooltips="1" connect="1" arrows="1" fold="1" page="1" pageScale="1" pageWidth="1169" pageHeight="827" math="0" shadow="0">
      <root>
        <mxCell id="0" />
        <mxCell id="1" parent="0" />
        <mxCell id="iFTZ1rOgggh5XYgnBIWL-4" style="edgeStyle=orthogonalEdgeStyle;rounded=0;orthogonalLoop=1;jettySize=auto;html=1;entryX=0.5;entryY=0;entryDx=0;entryDy=0;" edge="1" parent="1" source="iFTZ1rOgggh5XYgnBIWL-1" target="iFTZ1rOgggh5XYgnBIWL-3">
          <mxGeometry relative="1" as="geometry" />
        </mxCell>
        <mxCell id="iFTZ1rOgggh5XYgnBIWL-1" value="" style="ellipse;fillColor=strokeColor;html=1;" vertex="1" parent="1">
          <mxGeometry x="40" y="40" width="40" height="40" as="geometry" />
        </mxCell>
        <mxCell id="iFTZ1rOgggh5XYgnBIWL-9" style="edgeStyle=orthogonalEdgeStyle;rounded=0;orthogonalLoop=1;jettySize=auto;html=1;entryX=0.5;entryY=0;entryDx=0;entryDy=0;" edge="1" parent="1" source="iFTZ1rOgggh5XYgnBIWL-3" target="iFTZ1rOgggh5XYgnBIWL-5">
          <mxGeometry relative="1" as="geometry" />
        </mxCell>
        <mxCell id="iFTZ1rOgggh5XYgnBIWL-3" value="xp, xk, dx, eps, x" style="rounded=1;whiteSpace=wrap;html=1;" vertex="1" parent="1">
          <mxGeometry y="100" width="120" height="40" as="geometry" />
        </mxCell>
        <mxCell id="iFTZ1rOgggh5XYgnBIWL-10" style="edgeStyle=orthogonalEdgeStyle;rounded=0;orthogonalLoop=1;jettySize=auto;html=1;entryX=0.5;entryY=0;entryDx=0;entryDy=0;" edge="1" parent="1" source="iFTZ1rOgggh5XYgnBIWL-5" target="iFTZ1rOgggh5XYgnBIWL-6">
          <mxGeometry relative="1" as="geometry" />
        </mxCell>
        <mxCell id="iFTZ1rOgggh5XYgnBIWL-5" value="a = 0, R = 0, s = 0" style="rounded=1;whiteSpace=wrap;html=1;" vertex="1" parent="1">
          <mxGeometry y="160" width="120" height="40" as="geometry" />
        </mxCell>
        <mxCell id="iFTZ1rOgggh5XYgnBIWL-11" style="edgeStyle=orthogonalEdgeStyle;rounded=0;orthogonalLoop=1;jettySize=auto;html=1;entryX=0.5;entryY=0;entryDx=0;entryDy=0;" edge="1" parent="1" source="iFTZ1rOgggh5XYgnBIWL-6" target="iFTZ1rOgggh5XYgnBIWL-7">
          <mxGeometry relative="1" as="geometry" />
        </mxCell>
        <mxCell id="iFTZ1rOgggh5XYgnBIWL-6" value="n = 0" style="rounded=1;whiteSpace=wrap;html=1;" vertex="1" parent="1">
          <mxGeometry x="20" y="220" width="80" height="40" as="geometry" />
        </mxCell>
        <mxCell id="iFTZ1rOgggh5XYgnBIWL-12" style="edgeStyle=orthogonalEdgeStyle;rounded=0;orthogonalLoop=1;jettySize=auto;html=1;entryX=0.5;entryY=0;entryDx=0;entryDy=0;" edge="1" parent="1" source="iFTZ1rOgggh5XYgnBIWL-7" target="iFTZ1rOgggh5XYgnBIWL-8">
          <mxGeometry relative="1" as="geometry" />
        </mxCell>
        <mxCell id="iFTZ1rOgggh5XYgnBIWL-7" value="x = xp" style="rounded=1;whiteSpace=wrap;html=1;" vertex="1" parent="1">
          <mxGeometry x="20" y="280" width="80" height="40" as="geometry" />
        </mxCell>
        <mxCell id="iFTZ1rOgggh5XYgnBIWL-14" style="edgeStyle=orthogonalEdgeStyle;rounded=0;orthogonalLoop=1;jettySize=auto;html=1;entryX=0.5;entryY=0;entryDx=0;entryDy=0;" edge="1" parent="1" source="iFTZ1rOgggh5XYgnBIWL-8" target="iFTZ1rOgggh5XYgnBIWL-13">
          <mxGeometry relative="1" as="geometry" />
        </mxCell>
        <mxCell id="iFTZ1rOgggh5XYgnBIWL-16" style="edgeStyle=orthogonalEdgeStyle;rounded=0;orthogonalLoop=1;jettySize=auto;html=1;entryX=0;entryY=0.5;entryDx=0;entryDy=0;" edge="1" parent="1" source="iFTZ1rOgggh5XYgnBIWL-8" target="iFTZ1rOgggh5XYgnBIWL-15">
          <mxGeometry relative="1" as="geometry" />
        </mxCell>
        <mxCell id="iFTZ1rOgggh5XYgnBIWL-8" value="" style="rhombus;whiteSpace=wrap;html=1;" vertex="1" parent="1">
          <mxGeometry x="40" y="360" width="40" height="40" as="geometry" />
        </mxCell>
        <mxCell id="iFTZ1rOgggh5XYgnBIWL-13" value="" style="ellipse;html=1;shape=endState;fillColor=strokeColor;" vertex="1" parent="1">
          <mxGeometry x="40" y="440" width="40" height="41" as="geometry" />
        </mxCell>
        <mxCell id="iFTZ1rOgggh5XYgnBIWL-19" style="edgeStyle=orthogonalEdgeStyle;rounded=0;orthogonalLoop=1;jettySize=auto;html=1;entryX=0.5;entryY=0;entryDx=0;entryDy=0;" edge="1" parent="1" source="iFTZ1rOgggh5XYgnBIWL-15" target="iFTZ1rOgggh5XYgnBIWL-17">
          <mxGeometry relative="1" as="geometry" />
        </mxCell>
        <mxCell id="iFTZ1rOgggh5XYgnBIWL-15" value="&lt;br&gt;&lt;div align=&quot;justify&quot;&gt;s = S(x, eps, n, s)&lt;br&gt;&lt;br&gt;&lt;/div&gt;" style="rounded=1;whiteSpace=wrap;html=1;" vertex="1" parent="1">
          <mxGeometry x="160" y="370" width="120" height="20" as="geometry" />
        </mxCell>
        <mxCell id="iFTZ1rOgggh5XYgnBIWL-20" style="edgeStyle=orthogonalEdgeStyle;rounded=0;orthogonalLoop=1;jettySize=auto;html=1;" edge="1" parent="1" source="iFTZ1rOgggh5XYgnBIWL-17">
          <mxGeometry relative="1" as="geometry">
            <mxPoint x="60" y="340" as="targetPoint" />
            <Array as="points">
              <mxPoint x="320" y="425" />
            </Array>
          </mxGeometry>
        </mxCell>
        <mxCell id="iFTZ1rOgggh5XYgnBIWL-17" value="x += dx" style="rounded=1;whiteSpace=wrap;html=1;" vertex="1" parent="1">
          <mxGeometry x="180" y="410" width="80" height="30" as="geometry" />
        </mxCell>
        <mxCell id="iFTZ1rOgggh5XYgnBIWL-18" value="x &amp;lt;= xk" style="text;html=1;whiteSpace=wrap;strokeColor=none;fillColor=none;align=center;verticalAlign=middle;rounded=0;" vertex="1" parent="1">
          <mxGeometry x="80" y="350" width="60" height="30" as="geometry" />
        </mxCell>
        <mxCell id="iFTZ1rOgggh5XYgnBIWL-31" style="edgeStyle=orthogonalEdgeStyle;rounded=0;orthogonalLoop=1;jettySize=auto;html=1;entryX=0.5;entryY=0;entryDx=0;entryDy=0;" edge="1" parent="1" source="iFTZ1rOgggh5XYgnBIWL-21" target="iFTZ1rOgggh5XYgnBIWL-22">
          <mxGeometry relative="1" as="geometry" />
        </mxCell>
        <mxCell id="iFTZ1rOgggh5XYgnBIWL-21" value="&lt;br&gt;&lt;div align=&quot;justify&quot;&gt;S (x, eps, &amp;amp;n, s)&lt;br&gt;&lt;br&gt;&lt;/div&gt;" style="rounded=1;whiteSpace=wrap;html=1;" vertex="1" parent="1">
          <mxGeometry x="360" y="20" width="120" height="40" as="geometry" />
        </mxCell>
        <mxCell id="iFTZ1rOgggh5XYgnBIWL-32" style="edgeStyle=orthogonalEdgeStyle;rounded=0;orthogonalLoop=1;jettySize=auto;html=1;entryX=0.5;entryY=0;entryDx=0;entryDy=0;" edge="1" parent="1" source="iFTZ1rOgggh5XYgnBIWL-22" target="iFTZ1rOgggh5XYgnBIWL-23">
          <mxGeometry relative="1" as="geometry" />
        </mxCell>
        <mxCell id="iFTZ1rOgggh5XYgnBIWL-22" value="n = 0" style="rounded=1;whiteSpace=wrap;html=1;" vertex="1" parent="1">
          <mxGeometry x="380" y="80" width="80" height="30" as="geometry" />
        </mxCell>
        <mxCell id="iFTZ1rOgggh5XYgnBIWL-33" style="edgeStyle=orthogonalEdgeStyle;rounded=0;orthogonalLoop=1;jettySize=auto;html=1;entryX=0.5;entryY=0;entryDx=0;entryDy=0;" edge="1" parent="1" source="iFTZ1rOgggh5XYgnBIWL-23" target="iFTZ1rOgggh5XYgnBIWL-24">
          <mxGeometry relative="1" as="geometry" />
        </mxCell>
        <mxCell id="iFTZ1rOgggh5XYgnBIWL-23" value="a = x" style="rounded=1;whiteSpace=wrap;html=1;" vertex="1" parent="1">
          <mxGeometry x="380" y="130" width="80" height="30" as="geometry" />
        </mxCell>
        <mxCell id="iFTZ1rOgggh5XYgnBIWL-34" style="edgeStyle=orthogonalEdgeStyle;rounded=0;orthogonalLoop=1;jettySize=auto;html=1;entryX=0.5;entryY=0;entryDx=0;entryDy=0;" edge="1" parent="1" source="iFTZ1rOgggh5XYgnBIWL-24" target="iFTZ1rOgggh5XYgnBIWL-25">
          <mxGeometry relative="1" as="geometry" />
        </mxCell>
        <mxCell id="iFTZ1rOgggh5XYgnBIWL-24" value="s = a" style="rounded=1;whiteSpace=wrap;html=1;" vertex="1" parent="1">
          <mxGeometry x="380" y="180" width="80" height="30" as="geometry" />
        </mxCell>
        <mxCell id="iFTZ1rOgggh5XYgnBIWL-35" style="edgeStyle=orthogonalEdgeStyle;rounded=0;orthogonalLoop=1;jettySize=auto;html=1;entryX=0.5;entryY=0;entryDx=0;entryDy=0;" edge="1" parent="1" source="iFTZ1rOgggh5XYgnBIWL-25" target="iFTZ1rOgggh5XYgnBIWL-26">
          <mxGeometry relative="1" as="geometry" />
        </mxCell>
        <mxCell id="iFTZ1rOgggh5XYgnBIWL-25" value="n++" style="rounded=1;whiteSpace=wrap;html=1;" vertex="1" parent="1">
          <mxGeometry x="380" y="240" width="80" height="30" as="geometry" />
        </mxCell>
        <mxCell id="iFTZ1rOgggh5XYgnBIWL-36" style="edgeStyle=orthogonalEdgeStyle;rounded=0;orthogonalLoop=1;jettySize=auto;html=1;entryX=0.5;entryY=0;entryDx=0;entryDy=0;" edge="1" parent="1" source="iFTZ1rOgggh5XYgnBIWL-26" target="iFTZ1rOgggh5XYgnBIWL-27">
          <mxGeometry relative="1" as="geometry" />
        </mxCell>
        <mxCell id="iFTZ1rOgggh5XYgnBIWL-26" value="a =&amp;nbsp;A (x, n, a)" style="rounded=1;whiteSpace=wrap;html=1;" vertex="1" parent="1">
          <mxGeometry x="360" y="290" width="120" height="40" as="geometry" />
        </mxCell>
        <mxCell id="iFTZ1rOgggh5XYgnBIWL-37" style="edgeStyle=orthogonalEdgeStyle;rounded=0;orthogonalLoop=1;jettySize=auto;html=1;entryX=0.5;entryY=0;entryDx=0;entryDy=0;" edge="1" parent="1" source="iFTZ1rOgggh5XYgnBIWL-27" target="iFTZ1rOgggh5XYgnBIWL-28">
          <mxGeometry relative="1" as="geometry" />
        </mxCell>
        <mxCell id="iFTZ1rOgggh5XYgnBIWL-27" value="s += a" style="rounded=1;whiteSpace=wrap;html=1;" vertex="1" parent="1">
          <mxGeometry x="380" y="350" width="80" height="30" as="geometry" />
        </mxCell>
        <mxCell id="iFTZ1rOgggh5XYgnBIWL-38" style="edgeStyle=orthogonalEdgeStyle;rounded=0;orthogonalLoop=1;jettySize=auto;html=1;entryX=0.5;entryY=0;entryDx=0;entryDy=0;" edge="1" parent="1" source="iFTZ1rOgggh5XYgnBIWL-28" target="iFTZ1rOgggh5XYgnBIWL-29">
          <mxGeometry relative="1" as="geometry" />
        </mxCell>
        <mxCell id="iFTZ1rOgggh5XYgnBIWL-28" value="" style="rhombus;whiteSpace=wrap;html=1;" vertex="1" parent="1">
          <mxGeometry x="400" y="400" width="40" height="40" as="geometry" />
        </mxCell>
        <mxCell id="iFTZ1rOgggh5XYgnBIWL-39" style="edgeStyle=orthogonalEdgeStyle;rounded=0;orthogonalLoop=1;jettySize=auto;html=1;entryX=0.5;entryY=0;entryDx=0;entryDy=0;" edge="1" parent="1" source="iFTZ1rOgggh5XYgnBIWL-29" target="iFTZ1rOgggh5XYgnBIWL-30">
          <mxGeometry relative="1" as="geometry" />
        </mxCell>
        <mxCell id="iFTZ1rOgggh5XYgnBIWL-29" value="return s" style="rounded=1;whiteSpace=wrap;html=1;" vertex="1" parent="1">
          <mxGeometry x="380" y="460" width="80" height="30" as="geometry" />
        </mxCell>
        <mxCell id="iFTZ1rOgggh5XYgnBIWL-30" value="" style="ellipse;html=1;shape=endState;fillColor=strokeColor;" vertex="1" parent="1">
          <mxGeometry x="400" y="510" width="40" height="40" as="geometry" />
        </mxCell>
        <mxCell id="iFTZ1rOgggh5XYgnBIWL-40" value="abs(a) &amp;gt;= eps" style="text;whiteSpace=wrap;html=1;" vertex="1" parent="1">
          <mxGeometry x="450" y="390" width="80" height="30" as="geometry" />
        </mxCell>
        <mxCell id="iFTZ1rOgggh5XYgnBIWL-41" value="" style="endArrow=classic;html=1;rounded=0;exitX=1;exitY=0.5;exitDx=0;exitDy=0;" edge="1" parent="1" source="iFTZ1rOgggh5XYgnBIWL-28">
          <mxGeometry width="50" height="50" relative="1" as="geometry">
            <mxPoint x="530" y="300" as="sourcePoint" />
            <mxPoint x="420" y="220" as="targetPoint" />
            <Array as="points">
              <mxPoint x="540" y="420" />
              <mxPoint x="540" y="220" />
            </Array>
          </mxGeometry>
        </mxCell>
        <mxCell id="iFTZ1rOgggh5XYgnBIWL-47" style="edgeStyle=orthogonalEdgeStyle;rounded=0;orthogonalLoop=1;jettySize=auto;html=1;entryX=0.5;entryY=0;entryDx=0;entryDy=0;" edge="1" parent="1" source="iFTZ1rOgggh5XYgnBIWL-42" target="iFTZ1rOgggh5XYgnBIWL-43">
          <mxGeometry relative="1" as="geometry" />
        </mxCell>
        <mxCell id="iFTZ1rOgggh5XYgnBIWL-42" value="A (x, n, a)" style="rounded=1;whiteSpace=wrap;html=1;" vertex="1" parent="1">
          <mxGeometry x="640" y="20" width="120" height="40" as="geometry" />
        </mxCell>
        <mxCell id="iFTZ1rOgggh5XYgnBIWL-48" style="edgeStyle=orthogonalEdgeStyle;rounded=0;orthogonalLoop=1;jettySize=auto;html=1;entryX=0.5;entryY=0;entryDx=0;entryDy=0;" edge="1" parent="1" source="iFTZ1rOgggh5XYgnBIWL-43" target="iFTZ1rOgggh5XYgnBIWL-44">
          <mxGeometry relative="1" as="geometry" />
        </mxCell>
        <mxCell id="iFTZ1rOgggh5XYgnBIWL-43" value="R = ((2.0 * n - 1) * (2.0 * n - 1) * x * x) / ((2.0 * n) * (2.0 * n + 1))" style="rounded=1;whiteSpace=wrap;html=1;" vertex="1" parent="1">
          <mxGeometry x="600" y="80" width="200" height="40" as="geometry" />
        </mxCell>
        <mxCell id="iFTZ1rOgggh5XYgnBIWL-49" style="edgeStyle=orthogonalEdgeStyle;rounded=0;orthogonalLoop=1;jettySize=auto;html=1;entryX=0.5;entryY=0;entryDx=0;entryDy=0;" edge="1" parent="1" source="iFTZ1rOgggh5XYgnBIWL-44" target="iFTZ1rOgggh5XYgnBIWL-45">
          <mxGeometry relative="1" as="geometry" />
        </mxCell>
        <mxCell id="iFTZ1rOgggh5XYgnBIWL-44" value="a *= R" style="rounded=1;whiteSpace=wrap;html=1;" vertex="1" parent="1">
          <mxGeometry x="660" y="140" width="80" height="40" as="geometry" />
        </mxCell>
        <mxCell id="iFTZ1rOgggh5XYgnBIWL-50" style="edgeStyle=orthogonalEdgeStyle;rounded=0;orthogonalLoop=1;jettySize=auto;html=1;entryX=0.5;entryY=0;entryDx=0;entryDy=0;" edge="1" parent="1" source="iFTZ1rOgggh5XYgnBIWL-45" target="iFTZ1rOgggh5XYgnBIWL-46">
          <mxGeometry relative="1" as="geometry" />
        </mxCell>
        <mxCell id="iFTZ1rOgggh5XYgnBIWL-45" value="return a" style="rounded=1;whiteSpace=wrap;html=1;" vertex="1" parent="1">
          <mxGeometry x="660" y="200" width="80" height="40" as="geometry" />
        </mxCell>
        <mxCell id="iFTZ1rOgggh5XYgnBIWL-46" value="" style="ellipse;html=1;shape=endState;fillColor=strokeColor;" vertex="1" parent="1">
          <mxGeometry x="680" y="260" width="40" height="40" as="geometry" />
        </mxCell>
      </root>
    </mxGraphModel>
  </diagram>
</mxfile>
